# xmcd
#
# Track frame offsets:
# 150
# 13717
# 26612
# 38912
# 52610
# 62662
# 75065
# 86497
# 119897
# 132037
# 143547
# 158982
#
# Disc length: 2305 seconds
#
#
# Revision: 0
# Processed by: cddbd v1.5.2PL0 Copyright (c) Steve Scherf et al.
# Submitted via: FreeRIP 2.945 
#
DISCID=8a08ff0c
DTITLE=Mambo que Rico el Mambo - Mambo que Rico el Mambo
DYEAR=1994
DGENRE=mambo
TTITLE0=Tequila - Sylvio Mazzuca
TTITLE1=Patrícia - Pocho e Conunto RGE
TTITLE2=Babalu - Simonetti e Orquestra RGE
TTITLE3=Cerveza - Pocho e Conjunto RGE
TTITLE4=Ave Maria Lola - Cid Gray
TTITLE5=El Vagabundo - Pocho e Conjunto RGE
TTITLE6=Por uma cosa - Pocho e Conjunto RGE
TTITLE7=Baubles, Bangles and Beads/Mambo 5/Mambo Jambo/Para vigo me voy - Super Tom T.A.
TTITLE8=Ay Cosita Linda - Pocho e Conjunto RGE
TTITLE9=Cachito - Simonetti e Orquestra RGE
TTITLE10=Puerto Rico - Sylvio Mazzuca
TTITLE11=Pepe - Pocho e Conjunto RGE
EXTD=
EXTT0=
EXTT1=
EXTT2=
EXTT3=
EXTT4=
EXTT5=
EXTT6=
EXTT7=
EXTT8=
EXTT9=
EXTT10=
EXTT11=
PLAYORDER=
